<svg width="20" height="20" viewBox="0 0 20 20" fill="none" xmlns="http://www.w3.org/2000/svg">
<g clip-path="url(#clip0_2220_5019)">
<path d="M19.8739 8.48334C19.8265 8.17091 19.6111 7.91025 19.3137 7.80477L17.7381 7.24453C17.6449 6.98054 17.5392 6.72389 17.422 6.47563L18.139 4.96674C18.2744 4.68221 18.2422 4.34567 18.0554 4.09121C17.451 3.26928 16.729 2.5472 15.9092 1.94565C15.6545 1.75867 15.3191 1.72688 15.034 1.86255L13.5261 2.579C13.2778 2.46181 13.0208 2.35633 12.7566 2.26312L12.1961 0.687325C12.0906 0.390507 11.8307 0.17564 11.5189 0.127663C10.4113 -0.0425543 9.59156 -0.0425543 8.48222 0.127663C8.17083 0.17564 7.91051 0.390507 7.80503 0.687325L7.24456 2.26312C6.98034 2.35633 6.72335 2.46181 6.47531 2.579L4.96677 1.86255C4.68224 1.72699 4.34628 1.75879 4.09181 1.94565C3.27206 2.5472 2.54999 3.26928 1.94568 4.09121C1.7587 4.34567 1.72668 4.68209 1.862 4.96674L2.57903 6.47563C2.46184 6.72343 2.35636 6.98065 2.26293 7.24453L0.687125 7.80534C0.389962 7.91082 0.174867 8.17137 0.127119 8.48334C0.0411492 9.04805 0.000976562 9.52955 0.000976562 10.0006C0.000976562 10.471 0.0411492 10.9532 0.127119 11.5179C0.174522 11.8303 0.389962 12.091 0.687355 12.1964L2.26293 12.7567C2.35636 13.0211 2.46218 13.2779 2.57903 13.5262L1.862 15.0345C1.72668 15.319 1.75882 15.6555 1.94545 15.9094C2.54895 16.7308 3.27103 17.4529 4.09181 18.0556C4.34628 18.2425 4.68224 18.2749 4.967 18.1387L6.47497 17.4222C6.72323 17.5394 6.98022 17.6449 7.24445 17.7381L7.80491 19.3139C7.91039 19.6107 8.17037 19.8256 8.48211 19.8735C9.03626 19.9589 9.53279 20.0003 10.0004 20.0003C10.468 20.0003 10.9647 19.9589 11.5187 19.8735C11.8303 19.8256 12.0904 19.6107 12.1959 19.3139L12.7564 17.7381C13.0206 17.6449 13.2776 17.5394 13.5258 17.4222L15.0338 18.1387C15.3189 18.2748 15.6549 18.2424 15.9093 18.0556C16.731 17.4518 17.4531 16.7297 18.0555 15.9094C18.2421 15.6555 18.2742 15.319 18.1389 15.0345L17.4219 13.5262C17.5391 13.2779 17.6448 13.0206 17.738 12.7567L19.3136 12.1964C19.611 12.091 19.8264 11.8304 19.8738 11.5179C19.9598 10.9532 19.9999 10.4711 19.9999 10.0006C19.9999 9.53012 19.9599 9.04794 19.8739 8.48334ZM18.2445 10.7571L16.7664 11.2828C16.508 11.3743 16.3093 11.5841 16.2315 11.8475C16.0995 12.2939 15.9258 12.7163 15.7146 13.1035C15.5835 13.3446 15.5753 13.6337 15.6931 13.8814L16.3635 15.2915C16.0396 15.6804 15.6814 16.0392 15.2918 16.3628L13.882 15.6932C13.634 15.5743 13.3457 15.5838 13.1044 15.7144C12.7165 15.9254 12.2939 16.0989 11.8472 16.2311C11.5844 16.3087 11.3745 16.5073 11.2828 16.7657L10.7569 18.2444C10.2201 18.299 9.78094 18.299 9.24412 18.2444L8.71821 16.7657C8.62638 16.5079 8.41657 16.3086 8.15384 16.2311C7.70689 16.0989 7.28393 15.9254 6.89667 15.7144C6.65529 15.5828 6.3665 15.5744 6.11904 15.6932L4.70921 16.3634C4.31999 16.0391 3.96177 15.6809 3.63752 15.2915L4.30794 13.8814C4.4257 13.6336 4.41755 13.3446 4.28648 13.1035C4.07586 12.7174 3.90197 12.2945 3.76951 11.8469C3.69169 11.5841 3.49278 11.3743 3.23464 11.2828L1.75652 10.7571C1.72863 10.4882 1.7152 10.2404 1.7152 10.0005C1.7152 9.7606 1.72863 9.51337 1.75652 9.24444L3.23499 8.71829C3.49301 8.62681 3.69169 8.417 3.76951 8.15415C3.90174 7.70778 4.07563 7.28482 4.28648 6.89698C4.41755 6.65652 4.4257 6.36682 4.30794 6.1197L3.63752 4.70964C3.962 4.32019 4.32022 3.96139 4.70921 3.63772L6.11961 4.30791C6.3665 4.42682 6.65643 4.4173 6.89724 4.28668C7.28427 4.07571 7.70689 3.90217 8.15384 3.76994C8.41668 3.69235 8.6265 3.49321 8.71821 3.23542L9.24412 1.75672C9.7759 1.70151 10.2158 1.70151 10.7569 1.75672L11.2828 3.23542C11.3747 3.49321 11.5845 3.69247 11.8472 3.76994C12.2941 3.90217 12.7171 4.07571 13.1044 4.28668C13.3457 4.41833 13.634 4.42671 13.882 4.30791L15.2918 3.63772C15.6808 3.96139 16.039 4.32019 16.3635 4.70964L15.6931 6.1197C15.5753 6.36693 15.5835 6.65652 15.7146 6.89698C15.9261 7.28597 16.0999 7.70835 16.2315 8.15358C16.3093 8.417 16.508 8.62681 16.7664 8.71829L18.2445 9.24398C18.2724 9.51291 18.2858 9.76071 18.2858 10.0006C18.2858 10.2405 18.2724 10.4882 18.2445 10.7571Z" fill="#FFA900"/>
<path d="M10 5.83105C7.81209 5.83105 6.03198 7.61105 6.03198 9.79908C6.03198 11.9871 7.81197 13.7671 10 13.7671C12.188 13.7671 13.968 11.9871 13.968 9.79908C13.968 7.61105 12.1879 5.83105 10 5.83105ZM10 12.0529C8.75729 12.0529 7.74621 11.0418 7.74621 9.79908C7.74621 8.55637 8.75729 7.54528 10 7.54528C11.2427 7.54528 12.2538 8.55637 12.2538 9.79908C12.2538 11.0418 11.2427 12.0529 10 12.0529Z" fill="#FFA900"/>
</g>
<defs>
<clipPath id="clip0_2220_5019">
<rect width="20" height="20" fill="white"/>
</clipPath>
</defs>
</svg>
